<?xml version="1.0" encoding="UTF-8"?>
<svg id="Layer_2" data-name="Layer 2" xmlns="http://www.w3.org/2000/svg" width="1550.2" height="187.73" viewBox="0 0 1550.2 187.73">
  <g id="Layer_2-2" data-name="Layer 2">
    <g id="Layer_1-2" data-name="Layer 1-2">
      <g>
        <path d="M759.6,7.85v138.87h-28.98v-9.99l-10.33,8.15c-31.91,16.04-69.19-4.94-73.13-40.14-12.24,60.14-100.12,60.52-111.94,0-8.61,51.74-80.98,61.6-105.63,16.68l-5.81-14.67v33.47c0,3.29-3.36,13.67-4.82,17.16-15.83,38.03-70.61,37.97-98.14,12.82-2.46-2.25-8.77-6.99-6.06-10.07l18.55-17.24c11.58,9.67,21.76,17.58,37.88,15.7,12.65-1.47,20.47-10.37,21.59-22.87l-12.21,6.27c-43.05,11.53-80.24-21.26-67-65.98,9.94-33.57,51.39-49.21,79.21-26.22v-6.99h30.99v39.96l7.19-17.29c25.82-42.99,96.75-31.32,103.76,19.28l7.18-18.28c25.62-43.45,95.32-33.36,104.76,17.28l4.81-14.65c12.35-29.69,52.98-41.17,77.13-18.31V7.85h31ZM366.61,67.02c-36.44,1.98-26.23,62.98,11.18,48.22,24.99-9.85,15.86-49.69-11.18-48.22ZM701.42,68.03c-30.7,3.2-30.91,47.57-3.83,52.28,43.05,7.47,42.27-56.28,3.83-52.28ZM473.49,69.04c-28.31,5.32-23.36,56.77,10.52,51.47,30.91-4.83,25.63-58.26-10.52-51.47ZM585.43,69.03c-24.78,4.19-25.9,46.87,1,51.48,38.25,6.56,39.68-58.35-1-51.48Z"/>
        <path d="M804.58,82.29c3.48-36.26,35.02-48.94,67.81-41.81,22.45,4.88,32.11,20.74,35.63,42.32,10.65-49.42,76.8-60.32,101.62-15.66l5.83,13.66v-37.96h31.98v37.96l4.14-11.35c12.87-28.93,51.83-41.01,76.81-19.62v-6.99h30.99v97.41c0,5.66-5.19,18.64-8.19,23.78-19.92,34.1-80.88,29.56-101.61-1.98l19.34-19.13c6.53,4.93,12.37,10.62,20.24,13.57,17.82,6.69,37.65-.05,39.24-20.73-4.06,1.79-7.02,4.54-11.45,6.03-22.89,7.7-51.64-.91-63.67-22.35l-5.83-12.66v39.96h-31.98v-42.96h-76.46c-2.26,1.2.11,6.03,1.1,7.9,7.61,14.44,27.33,15.77,38.97,5.14,1.18-1.08,1.24-3.04,1.41-3.04h31.98c-13.88,41.9-69.43,49-95.39,13.92l-9.56-19.92v38.96h-33.98v-62.44c0-2.52-4.32-10.66-6.49-12.5-5.62-4.76-17.72-4.21-22.9,1.11-2.19,2.25-5.6,10.51-5.6,13.39v60.44h-33.98c1.46-20.71-1.96-44.04,0-64.44h0ZM985.49,82.78c-6.2-22.71-41.51-23.41-46.98,0h46.98ZM1102.23,67.02c-36.01,1.96-26.47,62.11,10.47,48.51,25.85-9.52,16.92-50-10.47-48.51Z"/>
        <path d="M295.85,146.73h-95.95c-3.64-67.38-100.3-67.41-103.95,0H0C.16,95.24,27.82,47.36,71.65,21.03c46.91-28.17,106.36-28.05,153.15.39,43.51,26.44,70.87,74.03,71.04,125.31h.01ZM148.92,24.83c-2.35-3.14-10.67-2.26-14.53-2.03-43.12,2.59-84.23,32.72-100.59,72.29-1.07,2.58-5.88,16.08-5.34,17.67.15.43.96,1.48,1.52.48,2.72-4.8,4.6-12.04,7.48-17.49C59.7,53.53,101.25,27.8,148.92,24.83ZM147.42,46.82c-2.82-.72-11.32,0-14.99,0-3.35,0-12.52,2.64-16.26,3.73-31.77,9.26-58.51,36.37-64.69,69.21,2.15.18,2.1-1.96,2.78-3.21,2.36-4.34,4.07-9.14,6.53-13.45,18.58-32.48,50.78-51.55,88.12-54.29.3-.24-1.12-1.89-1.5-1.99h.01ZM148.92,72.78c-2.06-3.13-9.94-2.26-13.48-1.97-27.98,2.23-55.83,26.04-60.48,53.93,2.66.55,1.72-.67,2.48-1.97,1.88-3.19,3.11-6.78,5.09-9.94,14.68-23.47,38.77-37.57,66.39-40.05h0Z"/>
        <path d="M1301.32,7.85v41.96l13.31-8.18c25.06-8.8,53.15,3.32,63.83,27.48l4.81,14.66c8.56-50.37,78.66-60.82,104.13-17.65l6.83,15.65v-38.96h28.98l.5,9.99c5.28-9.86,15.38-14.5,26.49-13.98v31.97c-8.78-1.87-24.99,4.12-24.99,14.49v61.44h-30.98v-39.96l-4.82,12.66c-23.4,47-97.8,38.05-106.62-14.67-4.37,39.24-53.68,62.59-82.45,31.98v9.99h-29.99V7.85h30.98-.01ZM1324.09,68.03c-36.25,3.82-27.43,61.63,8.44,52.44,31.12-7.97,21.62-55.6-8.44-52.44ZM1432.99,69.04c-29,4.92-24.49,56.29,9.5,51.45,30.67-4.37,26.59-57.58-9.5-51.45Z"/>
        <path d="M1198.38,7.85v41.96l6.68-5.81c22.54-14.2,58.29,1.04,58.29,29.29v73.43h-30.98v-61.44c0-1.55-2.48-8.81-3.55-10.44-5.43-8.28-21.84-8.51-27.27-.39-.56.84-3.16,6.41-3.16,6.83v65.44h-31.98V7.85h31.98-.01Z"/>
        <path d="M1028.2,3.1c25.24-4.08,28.56,33.84,2.92,33.36-21.49-.4-22.69-30.16-2.92-33.36Z"/>
        <path d="M164.91,146.73h-33.98c-.52-22.9,34.42-23.05,33.98,0Z"/>
      </g>
    </g>
  </g>
</svg>